<svg width="453" height="103" viewBox="0 0 453 103" fill="none" xmlns="http://www.w3.org/2000/svg">
<path d="M87.664 72.768V67.008H81.84V49.024H87.664V43.2H105.712V49.024H111.6V55.36H105.072V49.6H88.304V66.368H105.072V60.544H111.6V67.008H105.712V72.768H87.664ZM123.227 72.768V67.008H117.403V49.024H123.227V43.2H141.275V49.024H147.163V67.008H141.275V72.768H123.227ZM123.867 66.368H140.635V49.6H123.867V66.368ZM160.727 72.768V67.008H154.903V49.024H160.727V43.2H178.775V49.024H184.663V67.008H178.775V72.768H160.727ZM161.367 66.368H178.135V49.6H161.367V66.368ZM192.403 72.768V31.616H198.867V54.72H203.987V49.024H215.635V43.2H222.163V49.6H216.275V55.36H204.627V60.544H216.275V66.368H222.163V72.768H215.635V67.008H203.987V61.184H198.867V72.768H192.403ZM235.102 72.768V67.008H229.278V31.616H235.742V43.2H253.15V49.024H259.038V67.008H253.15V72.768H235.102ZM235.742 66.368H252.51V49.6H235.742V66.368ZM271.352 72.768V67.008H265.528V49.024H271.352V43.2H289.4V49.024H295.288V67.008H289.4V72.768H271.352ZM271.992 66.368H288.76V49.6H271.992V66.368ZM308.852 72.768V67.008H303.028V49.024H308.852V43.2H326.9V49.024H332.788V67.008H326.9V72.768H308.852ZM309.492 66.368H326.26V49.6H309.492V66.368ZM340.528 72.768V31.616H346.992V54.72H352.112V49.024H363.76V43.2H370.288V49.6H364.4V55.36H352.752V60.544H364.4V66.368H370.288V72.768H363.76V67.008H352.112V61.184H346.992V72.768H340.528Z" fill="black"/>
<rect x="1" y="1" width="451" height="101" rx="49" stroke="black" stroke-width="2"/>
</svg>
